<svg width="20" height="20" viewBox="0 0 20 20" fill="none" xmlns="http://www.w3.org/2000/svg">
<path d="M9.93732 16.169L5.27259 19.7306C5.04145 19.9197 4.78931 20.0092 4.51615 19.9991C4.24299 19.989 4.00135 19.91 3.79122 19.7621C3.5811 19.615 3.41846 19.4154 3.30332 19.1632C3.18817 18.9111 3.18271 18.6379 3.28693 18.3438L5.08348 12.5128L0.513301 9.26644C0.261153 9.09834 0.103561 8.87771 0.0405237 8.60455C-0.0225132 8.33139 -0.012007 8.07924 0.0720423 7.84811C0.156092 7.61697 0.303178 7.41189 0.513301 7.23287C0.723424 7.05384 0.975572 6.96475 1.26974 6.96559H6.91155L8.73962 0.914042C8.84468 0.61987 9.00774 0.393778 9.22879 0.235765C9.44984 0.0777526 9.68602 -0.000833822 9.93732 6.67055e-06C10.1895 6.67055e-06 10.4261 0.0790132 10.6471 0.237026C10.8682 0.395038 11.0308 0.62071 11.135 0.914042L12.9631 6.96559H18.6049C18.8991 6.96559 19.1512 7.0551 19.3613 7.23413C19.5715 7.41315 19.7186 7.61781 19.8026 7.84811C19.8867 8.07924 19.8972 8.33139 19.8341 8.60455C19.7711 8.87771 19.6135 9.09834 19.3613 9.26644L14.7912 12.5128L16.5877 18.3438C16.6928 18.6379 16.6877 18.9111 16.5726 19.1632C16.4574 19.4154 16.2944 19.615 16.0834 19.7621C15.8733 19.9092 15.6317 19.9882 15.3585 19.9991C15.0853 20.01 14.8332 19.9205 14.6021 19.7306L9.93732 16.169Z" fill="white"/>
</svg>
